<?xml version="1.0" encoding="iso-8859-1"?>
<!-- Generator: Adobe Illustrator 19.0.0, SVG Export Plug-In . SVG Version: 6.00 Build 0)  -->
<svg version="1.1" id="Camada_1" xmlns="http://www.w3.org/2000/svg" xmlns:xlink="http://www.w3.org/1999/xlink" x="0px" y="0px"
	 viewBox="0 0 1766 278" style="enable-background:new 0 0 1766 278;" xml:space="preserve">
<g id="XMLID_11_">
	<path id="XMLID_19_" style="fill:#002671;" d="M829.518,249.184V22.213h81.529c29.201,0,51.415,5.354,66.642,16.057
		c15.223,10.704,22.837,26.242,22.837,46.609c0,11.745-2.704,21.773-8.106,30.086c-5.404,8.316-13.354,14.446-23.851,18.396
		c11.848,3.117,20.94,8.938,27.28,17.459c6.338,8.522,9.51,18.916,9.51,31.177c0,22.241-7.042,38.947-21.123,50.118
		c-14.083,11.173-34.945,16.862-62.589,17.069H829.518z M884.234,116.836h28.527c11.949-0.103,20.472-2.292,25.565-6.566
		c5.09-4.272,7.638-10.579,7.638-18.919c0-9.589-2.755-16.494-8.262-20.716c-5.51-4.221-14.396-6.333-26.656-6.333h-26.813V116.836z
		 M884.234,152.689v54.404h35.854c9.872,0,17.459-2.26,22.76-6.78c5.3-4.521,7.95-10.886,7.95-19.097
		c0-18.913-9.407-28.422-28.216-28.527H884.234z"/>
	<path id="XMLID_23_" style="fill:#002671;" d="M1135.056,128.06l-17.303-1.247c-16.524,0-27.125,5.198-31.802,15.589v106.782
		h-52.533V80.515h49.26l1.715,21.668c8.832-16.524,21.146-24.786,36.944-24.786c5.613,0,10.496,0.624,14.654,1.871L1135.056,128.06z
		"/>
	<path id="XMLID_25_" style="fill:#002671;" d="M1244.332,249.184c-1.871-3.43-3.534-8.469-4.988-15.121
		c-9.665,12.159-23.176,18.239-40.53,18.239c-15.9,0-29.412-4.806-40.531-14.42c-11.121-9.611-16.68-21.692-16.68-36.243
		c0-18.29,6.755-32.113,20.266-41.466c13.509-9.354,33.15-14.03,58.925-14.03h16.212v-8.93c0-15.56-6.703-23.339-20.108-23.339
		c-12.472,0-18.707,6.162-18.707,18.484h-52.533c0-16.295,6.937-29.53,20.811-39.702s31.567-15.26,53.079-15.26
		c21.513,0,38.504,5.249,50.975,15.745c12.472,10.497,18.862,24.891,19.175,43.18v74.67c0.207,15.486,2.596,27.334,7.171,35.542
		v2.65H1244.332z M1211.44,214.889c6.547,0,11.976-1.403,16.29-4.209c4.311-2.806,7.404-5.975,9.274-9.509v-26.969h-15.276
		c-18.292,0-27.437,8.211-27.437,24.63c0,4.781,1.61,8.652,4.833,11.613C1202.345,213.407,1206.451,214.889,1211.44,214.889z"/>
	<path id="XMLID_30_" style="fill:#002671;" d="M1407.077,201.794c0-4.467-2.338-8.053-7.015-10.756
		c-4.677-2.701-13.563-5.508-26.657-8.418c-13.094-2.908-23.904-6.728-32.424-11.458c-8.522-4.728-15.019-10.469-19.486-17.226
		c-4.47-6.754-6.703-14.497-6.703-23.227c0-15.484,6.392-28.24,19.175-38.271c12.782-10.027,29.514-15.043,50.195-15.043
		c22.238,0,40.113,5.042,53.625,15.121c13.508,10.081,20.265,23.332,20.265,39.751h-52.689c0-13.509-7.119-20.265-21.356-20.265
		c-5.51,0-10.133,1.534-13.874,4.599c-3.741,3.066-5.611,6.886-5.611,11.457c0,4.677,2.284,8.472,6.858,11.38
		c4.572,2.911,11.872,5.3,21.902,7.171c10.028,1.87,18.835,4.106,26.423,6.703c25.355,8.729,38.036,24.372,38.036,46.922
		c0,15.382-6.835,27.903-20.499,37.568c-13.667,9.665-31.36,14.498-53.079,14.498c-14.446,0-27.334-2.6-38.66-7.795
		c-11.328-5.195-20.163-12.262-26.501-21.2c-6.34-8.937-9.509-18.341-9.509-28.216h49.104c0.207,7.795,2.806,13.484,7.794,17.069
		c4.988,3.586,11.38,5.379,19.174,5.379c7.171,0,12.549-1.454,16.135-4.365C1405.284,210.266,1407.077,206.471,1407.077,201.794z"/>
	<path id="XMLID_32_" style="fill:#002671;" d="M1481.903,37.022c0-7.483,2.701-13.613,8.105-18.396
		c5.403-4.778,12.418-7.17,21.045-7.17c8.625,0,15.64,2.392,21.045,7.17c5.402,4.782,8.106,10.912,8.106,18.396
		c0,7.482-2.704,13.615-8.106,18.395c-5.405,4.781-12.42,7.17-21.045,7.17c-8.627,0-15.642-2.389-21.045-7.17
		C1484.604,50.638,1481.903,44.505,1481.903,37.022z M1537.711,249.184h-52.69V80.515h52.69V249.184z"/>
	<path id="XMLID_36_" style="fill:#002671;" d="M1625,87.12V10h-52v239h52v-80.47c-18-4.94-30.7-21.29-30.7-40.7
		C1594.3,108.41,1607,92.06,1625,87.12z"/>
</g>
<g id="XMLID_46_">
	<path id="XMLID_83_" style="fill:#009C3B;" d="M61.631,157.061v89.117H43.146V27.368h74.539c22.742,0,40.7,5.812,53.876,17.433
		c13.174,11.623,19.762,27.603,19.762,47.94c0,20.539-6.338,36.394-19.01,47.564c-12.676,11.173-31.033,16.757-55.079,16.757H61.631
		z M61.631,141.431h56.055c17.933,0,31.609-4.264,41.027-12.792c9.416-8.529,14.126-20.42,14.126-35.673
		c0-15.15-4.685-27.215-14.052-36.197c-9.369-8.979-22.669-13.57-39.899-13.772H61.631V141.431z"/>
	<path id="XMLID_80_" style="fill:#009C3B;" d="M216.571,162.471c0-15.629,3.03-29.704,9.092-42.229
		c6.06-12.523,14.626-22.265,25.698-29.23c11.069-6.962,23.617-10.445,37.645-10.445c21.641,0,39.172,7.59,52.599,22.768
		c13.424,15.179,20.138,35.293,20.138,60.338v3.757c0,15.73-3.031,29.883-9.092,42.455c-6.063,12.574-14.603,22.268-25.623,29.079
		c-11.022,6.814-23.594,10.219-37.721,10.219c-21.542,0-39.05-7.589-52.523-22.767c-13.476-15.179-20.213-35.291-20.213-60.338
		V162.471z M234.605,167.431c0,19.438,5.035,35.391,15.103,47.865c10.069,12.473,23.268,18.71,39.599,18.71
		c16.23,0,29.38-6.237,39.449-18.71c10.069-12.474,15.103-28.93,15.103-49.368v-3.457c0-12.422-2.306-23.793-6.913-34.114
		c-4.61-10.318-11.072-18.309-19.386-23.97c-8.318-5.659-17.834-8.491-28.554-8.491c-16.031,0-29.105,6.288-39.224,18.861
		c-10.121,12.574-15.179,29.03-15.179,49.368V167.431z"/>
	<path id="XMLID_78_" style="fill:#009C3B;" d="M474.004,98.902c-3.809-0.7-7.866-1.052-12.173-1.052
		c-11.222,0-20.715,3.133-28.478,9.393c-7.765,6.262-13.3,15.355-16.606,27.276v111.66h-17.884V83.573h17.584l0.3,25.849
		c9.517-19.236,24.796-28.855,45.836-28.855c5.008,0,8.965,0.653,11.872,1.954L474.004,98.902z"/>
	<path id="XMLID_52_" style="fill:#009C3B;" d="M537.873,41.945v41.628h33.664v14.728h-33.664v108.473
		c0,9.029,1.628,15.749,4.885,20.162c3.254,4.414,8.691,6.619,16.306,6.619c3.005,0,7.864-0.5,14.577-1.503l0.751,14.601
		c-4.711,1.686-11.121,2.531-19.236,2.531c-12.323,0-21.291-3.581-26.9-10.745c-5.612-7.161-8.416-17.708-8.416-31.634V98.301
		h-29.906V83.573h29.906V41.945H537.873z"/>
	<path id="XMLID_49_" style="fill:#009C3B;" d="M711.449,246.178c-1.803-5.11-2.956-12.673-3.457-22.693
		c-6.312,8.217-14.352,14.554-24.12,19.011c-9.768,4.456-20.114,6.687-31.033,6.687c-15.629,0-28.279-4.357-37.946-13.075
		c-9.67-8.716-14.503-19.736-14.503-33.061c0-15.829,6.587-28.352,19.762-37.571c13.173-9.217,31.533-13.826,55.078-13.826h32.611
		v-18.484c0-11.621-3.583-20.763-10.745-27.427c-7.164-6.662-17.609-9.994-31.334-9.994c-12.525,0-22.894,3.208-31.109,9.618
		c-8.216,6.413-12.323,14.126-12.323,23.143l-18.034-0.15c0-12.925,6.012-24.12,18.034-33.588
		c12.022-9.467,26.799-14.202,44.333-14.202c18.133,0,32.435,4.535,42.906,13.601c10.468,9.069,15.855,21.716,16.156,37.946v76.944
		c0,15.73,1.653,27.501,4.959,35.317v1.803H711.449z M654.943,233.254c12.023,0,22.768-2.905,32.236-8.716
		c9.467-5.809,16.355-13.575,20.664-23.295v-35.766h-32.16c-17.935,0.202-31.961,3.482-42.079,9.843
		c-10.121,6.363-15.179,15.104-15.179,26.225c0,9.118,3.382,16.681,10.144,22.692C635.331,230.249,644.123,233.254,654.943,233.254z
		"/>
	<path id="XMLID_47_" style="fill:#009C3B;" d="M793.804,246.178H775.77V15.345h18.034V246.178z"/>
</g>
<path id="XMLID_44_" style="fill:#FFE11F;" d="M1745.04,135.47l-100.51,80.99c-3.2,2.58-7.96,0.3-7.96-3.81v-42.59
	c23.33,0,42.24-18.91,42.24-42.23c0-23.33-18.91-42.24-42.24-42.24V43.57c0-4.2,4.96-6.45,8.12-3.68l100.51,88.1
	C1747.48,129.99,1747.41,133.57,1745.04,135.47z"/>
</svg>
